<?xml version="1.0" encoding="UTF-8"?>
<svg version="1.1" xmlns="http://www.w3.org/2000/svg" width="2560" height="620">
<path d="M0 0 C844.8 0 1689.6 0 2560 0 C2560 204.6 2560 409.2 2560 620 C1715.2 620 870.4 620 0 620 C0 415.4 0 210.8 0 0 Z " fill="#EC2027" transform="translate(0,0)"/>
<path d="M0 0 C51.00772873 -0.43496133 102.01526996 -0.76971874 153.0244887 -0.97024126 C159.04757883 -0.99400447 165.07066532 -1.01859661 171.09375 -1.04370117 C172.29282941 -1.04868507 173.49190883 -1.05366897 174.72732398 -1.05880389 C194.13876431 -1.14146284 213.54913471 -1.29125832 232.95994046 -1.46590313 C252.87979023 -1.64363212 272.79907999 -1.74912645 292.71969008 -1.7876814 C305.0109016 -1.81374366 317.29908918 -1.89602005 329.58936962 -2.05041287 C338.01932816 -2.15091202 346.44772555 -2.18118993 354.87823954 -2.15652617 C359.74243898 -2.1443616 364.60136053 -2.16287861 369.46461868 -2.26490402 C397.89566797 -2.83251415 397.89566797 -2.83251415 404.70167828 1.86450362 C408.86415222 6.24400835 411.21761947 11.06346879 413.16573572 16.73322427 C414.36203222 19.98367611 416.09358151 22.57421125 418.03125 25.4375 C419.18784718 27.29145012 420.34410203 29.14561385 421.5 31 C427.96434596 41.35605302 434.47051895 51.68492709 441 62 C448.18029382 73.34320686 455.32410438 84.70823745 462.43286133 96.09643555 C466.27096591 102.24220848 470.12487354 108.37751023 474 114.5 C478.52586201 121.65061666 483.01887978 128.82126466 487.5 136 C493.96500745 146.35564288 500.47051621 156.68492276 507 167 C514.17801098 178.33960052 521.31906736 189.70131474 528.42626953 201.08544922 C534.2510408 210.41135126 540.11905045 219.70945717 546 229 C553.18029382 240.34320686 560.32410438 251.70823745 567.43286133 263.09643555 C571.7423423 269.99700091 576.07560348 276.88195298 580.42822266 283.75537109 C583.25640537 288.22596942 586.06826876 292.706325 588.8671875 297.1953125 C589.53234375 298.26201172 590.1975 299.32871094 590.8828125 300.42773438 C592.17313002 302.49856749 593.4622688 304.57013573 594.75 306.64257812 C598.3990095 312.49915938 602.13176676 318.28568579 606 324 C608.69882954 321.40811624 610.98233725 318.80885913 613.1171875 315.73828125 C613.71208984 314.88468018 614.30699219 314.0310791 614.91992188 313.15161133 C615.56509766 312.21470459 616.21027344 311.27779785 616.875 310.3125 C617.56916016 309.30920654 618.26332031 308.30591309 618.97851562 307.2722168 C627.32051027 295.16154544 635.44800605 282.90678814 643.579422 270.65423584 C647.09211499 265.36240958 650.61564988 260.07791766 654.14453125 254.796875 C670.10709479 230.90487154 685.90066053 206.91768892 701.359375 182.6953125 C704.42840067 177.8882324 707.51926535 173.09591942 710.625 168.3125 C715.28008885 161.1378998 719.87514176 153.92594298 724.46191406 146.70751953 C730.94011358 136.51424233 737.45381654 126.34378956 743.96777344 116.17333984 C746.64792069 111.98826608 749.32683186 107.80240192 752.00561523 103.61645508 C753.33315969 101.54201452 754.66079612 99.46763282 755.98852539 97.39331055 C759.38560531 92.0859717 762.78159965 86.77794294 766.17578125 81.46875 C773.32824112 70.28279655 780.49672356 59.10805008 787.72314453 47.96972656 C789.01396875 45.97845127 790.30230007 43.98558533 791.58984375 41.9921875 C797.01993621 33.58646851 802.4722739 25.19542179 807.9375 16.8125 C808.8960791 15.34176025 808.8960791 15.34176025 809.87402344 13.84130859 C810.48149414 12.91012207 811.08896484 11.97893555 811.71484375 11.01953125 C812.25230225 10.19557861 812.78976074 9.37162598 813.34350586 8.52270508 C813.89014893 7.6902124 814.43679199 6.85771973 815 6 C815.83468831 4.45979456 815.83468831 4.45979456 816.686239 2.88847387 C819 -0 819 -0 822.03595757 -0.74519098 C823.2373927 -0.74291266 824.43882782 -0.74063433 825.67667007 -0.73828697 C826.34988143 -0.74521004 827.02309279 -0.7521331 827.71670449 -0.75926596 C829.98359354 -0.77521031 832.24794999 -0.74818981 834.51470947 -0.7215271 C836.15158874 -0.72414252 837.78846557 -0.72939409 839.42532897 -0.7370621 C843.93163493 -0.75051044 848.43708905 -0.72643575 852.94328642 -0.69639373 C857.79943067 -0.67053608 862.65552504 -0.67924741 867.51171875 -0.68380737 C875.92809729 -0.68695687 884.34419722 -0.66809678 892.76050568 -0.63438034 C904.92909729 -0.58566361 917.09755389 -0.56999633 929.26623246 -0.56245239 C949.00796837 -0.54931344 968.74955572 -0.50936433 988.49121094 -0.45263672 C1007.67089086 -0.39758118 1026.85053047 -0.35510151 1046.03027344 -0.32958984 C1047.80297247 -0.32722533 1047.80297247 -0.32722533 1049.6114836 -0.32481305 C1055.54009303 -0.31698295 1061.46870274 -0.30940068 1067.39731264 -0.30194163 C1116.59831112 -0.23971894 1165.79914832 -0.13402044 1215 0 C1214.04910599 1.2688851 1213.098069 2.53766304 1212.14697266 3.80639648 C1211.35258286 4.86624001 1211.35258286 4.86624001 1210.54214478 5.94749451 C1204.39620241 14.12738829 1198.08710366 22.16474116 1191.67114258 30.13330078 C1187.89147706 34.84453598 1184.21299475 39.62573342 1180.5625 44.4375 C1175.7201822 50.81653178 1170.74146859 57.06423739 1165.66650391 63.25927734 C1162.35424021 67.31005242 1159.10966889 71.40118768 1155.9375 75.5625 C1152.41715438 80.17869514 1148.82966187 84.72946911 1145.1875 89.25 C1140.89327952 94.58289974 1136.7007544 99.98281081 1132.5625 105.4375 C1127.7201822 111.81653178 1122.74146859 118.06423739 1117.66650391 124.25927734 C1114.35424021 128.31005242 1111.10966889 132.40118768 1107.9375 136.5625 C1104.41715611 141.17869287 1100.82973053 145.72952623 1097.1875 150.25 C1092.91059506 155.55990077 1088.74135095 160.93987257 1084.625 166.375 C1079.60270151 172.99664117 1074.40111931 179.44361523 1069.09033203 185.83544922 C1065.49080127 190.17231776 1061.96035866 194.55142431 1058.5 199 C1053.84039531 204.98734151 1049.03066943 210.84094123 1044.19140625 216.68359375 C1040.56298581 221.07422068 1036.99847698 225.50529375 1033.5 230 C1028.30598364 236.66869458 1022.93593705 243.18452596 1017.55078125 249.69921875 C1010.11597764 258.69453866 1002.74146742 267.7363624 995.5625 276.9375 C990.34402124 283.6237655 984.95442923 290.16230981 979.55078125 296.69921875 C972.11597764 305.69453866 964.74146742 314.7363624 957.5625 323.9375 C952.34402124 330.6237655 946.95442923 337.16230981 941.55078125 343.69921875 C934.04938033 352.77511432 926.61323342 361.90005089 919.375 371.1875 C915.41468342 376.26891721 911.31789084 381.20794484 907.12890625 386.10180664 C903.2870202 390.6106868 899.62146753 395.24319968 895.97998047 399.91455078 C892.53195611 404.33544129 889.01144208 408.68986304 885.44921875 413.01953125 C882.43271512 416.69033232 879.43373843 420.37515091 876.4375 424.0625 C875.87305176 424.75714355 875.30860352 425.45178711 874.72705078 426.16748047 C871.17886874 430.53806818 867.6531672 434.92571021 864.14453125 439.328125 C861.90096476 442.12338817 859.63869084 444.90274063 857.37402344 447.6809082 C851.78370206 454.53932941 846.26099553 461.44191382 840.828125 468.42578125 C840.38498614 468.96348579 839.94184729 469.50119033 839.48527998 470.05518895 C837.89028634 472.06753747 837.89028634 472.06753747 836.3824802 474.70642442 C833.25641966 479.41856274 830.85203708 482.49038471 825.27347457 484.02540839 C820.57419119 484.5612447 815.87500809 484.46314109 811.15354919 484.39009094 C809.32416031 484.40205697 807.4947976 484.4188203 805.66549164 484.43995255 C800.6495887 484.48388612 795.63601715 484.45933289 790.62013733 484.42331231 C785.20686052 484.3963532 779.79395604 484.43275785 774.3807373 484.46101379 C763.78104487 484.50607083 753.18222539 484.49179578 742.58252745 484.45644972 C733.96861138 484.4288738 725.35493646 484.4231427 716.74098396 484.4330349 C714.90205021 484.43513016 714.90205021 484.43513016 713.02596628 484.43726775 C710.53547486 484.44021242 708.04498352 484.44321306 705.55449224 484.44626906 C682.20199803 484.47246293 658.84998492 484.43200502 635.49758656 484.36824914 C615.45789677 484.31501051 595.4188623 484.31653045 575.37915039 484.35864258 C552.10875072 484.40750574 528.83870964 484.42419672 505.56827408 484.38825864 C503.08724953 484.38450294 500.60622493 484.38078199 498.12520027 484.37709618 C496.90448001 484.37525843 495.68375975 484.37342069 494.42604796 484.37152726 C485.82147132 484.36073823 477.21709956 484.37279689 468.61254692 484.39351845 C458.12779631 484.41807028 447.64381039 484.40680118 437.15917473 484.34965894 C431.80898307 484.32137718 426.46003201 484.30909538 421.10982704 484.34009552 C416.21204024 484.36800682 411.31667733 484.34976551 406.41914106 484.29464903 C404.64743972 484.28278148 402.87552877 484.28777264 401.10394388 484.31129841 C387.86693546 484.47316455 387.86693546 484.47316455 383.24853718 480.82887113 C381.20872629 478.30977753 379.6024484 475.81090771 378 473 C376.94647633 471.65123511 375.87141902 470.31856174 374.76171875 469.015625 C374.25769531 468.39816406 373.75367188 467.78070312 373.234375 467.14453125 C372.72390625 466.51933594 372.2134375 465.89414062 371.6875 465.25 C367.11906894 459.64280736 362.61598306 453.99055501 358.16479492 448.29003906 C354.66277027 443.81624841 351.09214568 439.40164329 347.5 435 C342.99240027 429.47660315 338.55157358 423.90815564 334.1640625 418.2890625 C330.12080938 413.12398193 325.98152753 408.04000757 321.83374023 402.95874023 C318.36106518 398.69689091 314.94173694 394.39868899 311.5625 390.0625 C307.46062077 384.8024431 303.25421962 379.63749637 299 374.5 C294.28702568 368.8085006 289.65547156 363.06675554 285.11328125 357.23828125 C281.63146023 352.77910696 278.07751928 348.38265769 274.5 344 C269.99232786 338.47666343 265.55157233 332.90815403 261.1640625 327.2890625 C257.12080938 322.12398193 252.98152753 317.04000757 248.83374023 311.95874023 C245.36106518 307.69689091 241.94173694 303.39868899 238.5625 299.0625 C234.46062077 293.8024431 230.25421962 288.63749637 226 283.5 C221.28702568 277.8085006 216.65547156 272.06675554 212.11328125 266.23828125 C208.63146023 261.77910696 205.07751928 257.38265769 201.5 253 C196.99232786 247.47666343 192.55157233 241.90815403 188.1640625 236.2890625 C184.12080938 231.12398193 179.98152753 226.04000757 175.83374023 220.95874023 C172.36106518 216.69689091 168.94173694 212.39868899 165.5625 208.0625 C161.46062077 202.8024431 157.25421962 197.63749637 153 192.5 C148.28702568 186.8085006 143.65547156 181.06675554 139.11328125 175.23828125 C135.63146023 170.77910696 132.07751928 166.38265769 128.5 162 C123.99232786 156.47666343 119.55157233 150.90815403 115.1640625 145.2890625 C111.12080938 140.12398193 106.98152753 135.04000757 102.83374023 129.95874023 C99.36106518 125.69689091 95.94173694 121.39868899 92.5625 117.0625 C88.46062077 111.8024431 84.25421962 106.63749637 80 101.5 C75.28702568 95.8085006 70.65547156 90.06675554 66.11328125 84.23828125 C62.63146023 79.77910696 59.07751928 75.38265769 55.5 71 C50.99232786 65.47666343 46.55157233 59.90815403 42.1640625 54.2890625 C38.12080938 49.12398193 33.98152753 44.04000757 29.83374023 38.95874023 C25.91364833 34.14779744 22.06810681 29.28446359 18.25854492 24.38574219 C15.62582942 21.0177898 12.93835406 17.70337973 10.203125 14.41796875 C9.55786865 13.64251709 8.9126123 12.86706543 8.24780273 12.06811523 C6.97570216 10.54438684 5.69928876 9.02424683 4.41821289 7.50805664 C3.84321045 6.8196167 3.26820801 6.13117676 2.67578125 5.421875 C2.15927002 4.80924805 1.64275879 4.19662109 1.1105957 3.56542969 C0 2 0 2 0 0 Z " fill="#FEFEFE" transform="translate(98,67)"/>
<path d="M0 0 C3.84861196 0.00850286 7.69722872 0.01199999 11.54584759 0.01594188 C17.19301128 0.02211905 22.84016965 0.02970517 28.48732878 0.03918668 C38.43885896 0.05587621 48.39036703 0.06343979 58.34191035 0.06522515 C59.43092911 0.06543812 59.43092911 0.06543812 60.54194825 0.0656554 C63.48879119 0.06622106 66.43563414 0.0667544 69.38247711 0.06721526 C77.78189088 0.06860533 86.18130326 0.07251684 94.58071612 0.07652428 C96.16462529 0.07726844 97.74853446 0.07801226 99.33244362 0.07875573 C103.40058027 0.08067624 107.4687169 0.08263773 111.53685353 0.08460611 C114.09187732 0.08583523 116.64690111 0.08704351 119.20192491 0.08824566 C163.28264262 0.10901231 207.36335179 0.13642137 251.44405841 0.17413476 C252.44728123 0.17499227 253.45050406 0.17584978 254.48412757 0.17673327 C276.18114876 0.1953167 297.87816902 0.21481281 319.57518838 0.23541753 C330.13038063 0.24544024 340.68557305 0.25527818 351.24076556 0.26501611 C352.81543146 0.26647381 352.81543146 0.26647381 354.42190879 0.26796097 C388.61106515 0.29951763 422.80021349 0.31788879 456.98938192 0.32958904 C492.29562695 0.34173974 527.60183916 0.36692377 562.9080623 0.40857271 C567.89093374 0.4144452 572.87380534 0.4201701 577.85667705 0.42580559 C578.83699472 0.42691905 579.8173124 0.42803251 580.82733668 0.42917971 C596.56221268 0.4466721 612.2970633 0.45049943 628.03194773 0.44912578 C643.81417279 0.4480416 659.59633283 0.46146498 675.37853321 0.48966086 C684.7401869 0.50594863 694.10169329 0.51120866 703.46335581 0.50046832 C709.72280972 0.49438674 715.98213675 0.50288452 722.24156099 0.52298887 C725.80156794 0.5340139 729.36127619 0.53894979 732.92128357 0.52600902 C750.5628036 0.46702352 766.81418594 1.13134886 783.24589252 8.24499657 C783.93956927 8.53906396 784.63324603 8.83313134 785.3479433 9.13610986 C796.95959603 14.25054524 807.06316436 21.69672284 816.55839252 30.05749657 C817.50778705 30.88120751 817.50778705 30.88120751 818.47636127 31.72155907 C840.32392696 52.01929745 846.97431499 85.54410119 848.55839252 114.05749657 C848.55839252 118.01749657 848.55839252 121.97749657 848.55839252 126.05749657 C744.27839252 126.05749657 639.99839252 126.05749657 532.55839252 126.05749657 C531.23611122 121.42951203 530.14011157 117.11754608 529.24589252 112.43249657 C525.24201692 93.62822512 516.36345163 76.26736501 499.97636127 65.55749657 C499.17843158 65.06249657 498.38050189 64.56749657 497.55839252 64.05749657 C496.93577533 63.64499657 496.31315814 63.23249657 495.67167377 62.80749657 C482.47058411 55.01856732 462.30378885 57.7334357 447.68168353 57.70349267 C444.97639266 57.69198215 442.27111776 57.67766986 439.56583881 57.66366723 C431.49336713 57.62445412 423.4208916 57.60405906 415.34834876 57.58621165 C412.30000115 57.57917423 409.25165755 57.57088406 406.2033133 57.56253232 C392.7377136 57.52564921 379.27211366 57.4941486 365.80647086 57.47873643 C362.52382686 57.47491768 359.24118289 57.47107682 355.958539 57.46716454 C355.1428182 57.46619706 354.3270974 57.46522958 353.48665778 57.46423278 C340.26450108 57.44762176 327.04270554 57.39690734 313.8207066 57.33200319 C300.20575795 57.26572065 286.59099273 57.22982733 272.97588199 57.22344794 C265.34731391 57.21913369 257.71927483 57.20187016 250.09086513 57.1505256 C243.59796219 57.10691906 237.10571722 57.0911046 230.61268443 57.11045916 C227.30656977 57.11949172 224.00290032 57.11165725 220.69679546 57.07693627 C198.49568684 56.85693061 184.51487407 61.42888793 168.55839252 77.05749657 C162.54517559 83.30782773 159.43829589 88.66776852 157.55839252 97.05749657 C157.07412594 98.92485435 157.07412594 98.92485435 156.58007621 100.82993653 C153.14193023 114.70411214 152.98388548 128.19465047 153.02494525 142.42614892 C153.01787291 145.02851999 153.00912242 147.63088695 152.99883746 150.23324731 C152.97738205 156.52030213 152.97727535 162.80717469 152.98546301 169.09425397 C152.9918018 174.20764607 152.9905908 179.32098561 152.98419093 184.43437722 C152.98283845 185.5322548 152.98283845 185.5322548 152.98145864 186.65231172 C152.9796072 188.13981008 152.97774463 189.62730842 152.97587109 191.11480675 C152.95935934 205.00721391 152.96795757 218.89951897 152.98485666 232.79191993 C152.99957222 245.47581006 152.98488747 258.1594637 152.9560865 270.84332342 C152.9266391 283.91034684 152.91573421 296.97726131 152.9252687 310.04431644 C152.92629113 311.52404778 152.92728574 313.00377914 152.92825221 314.48351052 C152.9289668 315.57523948 152.9289668 315.57523948 152.92969582 316.68902357 C152.93185156 321.79326828 152.92210176 326.89740872 152.90748119 332.00163033 C152.88805468 338.87853749 152.89512714 345.75499821 152.91968059 352.63188699 C152.92467554 355.14847998 152.92123317 357.6651067 152.90853213 360.1816726 C152.63645593 378.24625183 152.63645593 378.24625183 158.55839252 395.05749657 C159.16940814 396.2150747 159.78042377 397.37265282 160.40995502 398.56530907 C169.98688486 412.69866369 182.53005281 424.90122577 199.55839252 429.05749657 C203.46325967 429.46767347 207.33522817 429.47158787 211.25901507 429.45190575 C212.98413393 429.46104241 212.98413393 429.46104241 214.74410366 429.47036364 C218.58301758 429.48696128 222.42159864 429.48222225 226.26054095 429.47741845 C229.01907615 429.48312641 231.77759151 429.49325517 234.53611468 429.50308373 C241.24294376 429.52409315 247.94968631 429.52868114 254.65654441 429.52689585 C260.1115112 429.52558581 265.56645111 429.52940465 271.02141284 429.53682091 C272.59553121 429.53892022 274.16964959 429.54101782 275.74376797 429.54311373 C276.91917772 429.54467903 276.91917772 429.54467903 278.11833312 429.54627594 C292.92440118 429.56516062 307.73041965 429.56413372 322.53649475 429.55730661 C336.06165806 429.55173395 349.58663179 429.5725479 363.1117508 429.60566708 C377.01917741 429.63945646 390.92651335 429.65456579 404.83398174 429.64995005 C412.63397091 429.64771047 420.43378493 429.65287329 428.23373889 429.67784264 C434.87537069 429.69892387 441.51673132 429.70238071 448.15837451 429.68354305 C451.5425394 429.67442607 454.92578899 429.67586041 458.30997943 429.6938987 C477.10198148 430.140521 477.10198148 430.140521 494.55839252 424.05749657 C496.02701551 423.25757413 496.02701551 423.25757413 497.52530765 422.44149163 C512.60207497 413.88240925 521.76736624 400.98281883 527.55839252 385.05749657 C533.31653077 350.50866705 531.55839252 315.08288419 531.55839252 280.05749657 C470.83839252 280.05749657 410.11839252 280.05749657 347.55839252 280.05749657 C347.55839252 262.56749657 347.55839252 245.07749657 347.55839252 227.05749657 C513.54839252 227.05749657 679.53839252 227.05749657 850.55839252 227.05749657 C850.55839252 257.0304125 850.54258915 287.00174568 850.37448978 316.9739137 C850.33445548 324.18333955 850.30210217 331.3926484 850.28739642 338.60217431 C850.27430483 345.01366404 850.24722689 351.42492113 850.20377945 357.8362796 C850.18148108 361.19155233 850.16757811 364.54629853 850.16650867 367.90168336 C850.14695172 398.38682427 843.9397276 425.57043424 823.55839252 449.05749657 C822.8713222 449.88894189 822.18425189 450.7203872 821.47636127 451.57702782 C804.77446288 471.16790323 780.87968701 481.72239899 755.55839252 484.05749657 C745.38551586 484.57571716 735.1877592 484.47776174 725.00451101 484.45530196 C720.83489834 484.44944692 716.6653258 484.46107438 712.49572437 484.47036364 C705.20186189 484.48422325 697.90806143 484.48702493 690.61418819 484.48240426 C679.7669725 484.47555054 668.91981924 484.48585745 658.07261223 484.49936182 C637.56652978 484.52423592 617.06047342 484.52879248 596.5543783 484.52689585 C580.71124752 484.52552102 564.86812576 484.52934897 549.02499675 484.53682091 C546.74612715 484.53787127 544.46725755 484.53891889 542.18838795 484.53996378 C541.05709497 484.54048312 539.925802 484.54100247 538.76022742 484.54153755 C537.06011438 484.54231776 537.06011438 484.54231776 535.32565563 484.54311373 C534.19029504 484.54363773 533.05493445 484.54416172 531.88516899 484.54470159 C499.96194199 484.55928016 468.0387183 484.56756962 436.11548804 484.56295159 C434.91266127 484.56277964 433.7098345 484.56260768 432.47055843 484.56243052 C426.37465938 484.56154167 420.27876034 484.56059686 414.1828613 484.55963251 C412.97227882 484.55944147 411.76169635 484.55925044 410.51442956 484.55905362 C408.0663364 484.55866652 405.61824325 484.5582762 403.17015009 484.55788264 C365.10284341 484.55191654 327.03559758 484.56733554 288.96830463 484.59948876 C246.15986035 484.63561622 203.35145466 484.65489131 160.54299419 484.64995005 C155.97246054 484.64948011 151.40192689 484.64906985 146.83139323 484.64869836 C145.143433 484.64854478 145.143433 484.64854478 143.42137256 484.6483881 C126.47787018 484.64719624 109.53440965 484.65912176 92.59091853 484.67784264 C73.30224395 484.69914494 54.0136568 484.70286338 34.72497824 484.68354305 C23.94900422 484.67326628 13.17324388 484.6765597 2.39728947 484.70007391 C-4.82460548 484.71442627 -12.04634423 484.71019539 -19.26822894 484.69162814 C-23.36741753 484.6815889 -27.4661939 484.67883947 -31.56535491 484.69894883 C-70.90460715 484.87903158 -113.2955099 481.19217913 -143.12910748 452.74499657 C-148.10171169 447.58287388 -152.30536155 441.89832824 -156.44160748 436.05749657 C-157.18410748 435.07716454 -157.18410748 435.07716454 -157.94160748 434.07702782 C-165.52329316 423.34420404 -167.59931639 408.89929836 -167.56859113 396.11276391 C-167.57015112 395.11430998 -167.57171111 394.11585606 -167.57331837 393.08714595 C-167.57730673 389.74049651 -167.57414643 386.39389245 -167.57100201 383.04724267 C-167.57235755 380.64440528 -167.57413834 378.2415681 -167.57631207 375.83873131 C-167.58040732 369.97331871 -167.57979271 364.10791784 -167.57689943 358.24250556 C-167.57463003 353.43821628 -167.57433956 348.63393056 -167.57542325 343.82964089 C-167.57557648 343.14236987 -167.57572972 342.45509886 -167.57588759 341.74700144 C-167.57620741 340.34948537 -167.57653163 338.9519693 -167.57686018 337.55445324 C-167.57971681 324.41825333 -167.57643196 311.28206037 -167.57105982 298.14586161 C-167.56665322 287.03241858 -167.5673756 275.91898625 -167.57197858 264.80554345 C-167.61704551 152.01183348 -167.61704551 152.01183348 -167.14427234 111.82442286 C-167.1217685 109.76489446 -167.10425601 107.70538425 -167.08833981 105.64579537 C-166.82792667 75.7022967 -160.12632774 49.39117962 -138.74238873 27.26452782 C-132.8001457 21.66135715 -126.47196609 17.18591588 -119.44160748 13.05749657 C-118.674857 12.55854882 -117.90810651 12.05960107 -117.11812116 11.54553368 C-114.36875981 10.01699611 -112.1858145 9.36650098 -109.10957623 8.77624657 C-108.07711774 8.57555566 -107.04465924 8.37486474 -105.98091412 8.16809228 C-104.87481793 7.96659569 -103.76872174 7.76509911 -102.62910748 7.55749657 C-100.88585187 7.23494897 -100.88585187 7.23494897 -99.10737897 6.90588525 C-87.59125305 4.82661732 -76.09326987 3.15151687 -64.44160748 2.05749657 C-63.34284284 1.95308251 -62.24407819 1.84866845 -61.11201764 1.74109032 C-40.77069714 -0.05515315 -20.40391997 -0.05032477 0 0 Z " fill="#FEFEFE" transform="translate(1533.4416074836627,65.942503426224)"/>
</svg>
